<svg width="18" height="18" viewBox="0 0 18 18" fill="none" xmlns="http://www.w3.org/2000/svg">
<path d="M9.3447 17.1679L17.0709 9.63567C17.6652 9.05746 17.7049 8.72597 17.7049 7.91645V4.98679C17.7049 4.16957 17.5067 3.91515 16.9045 3.32922L15.0819 1.55601C14.4876 0.977796 14.2261 0.777344 13.3861 0.777344H10.367C9.53491 0.777344 9.20205 0.815892 8.60775 1.39411L0.857813 8.91867C-0.275359 10.0212 -0.299132 11.1622 0.865741 12.2878L5.88181 17.1603C7.04668 18.2858 8.21152 18.2704 9.3447 17.1679ZM12.0549 6.94502C11.4288 6.94502 10.9692 6.47474 10.9692 5.88881C10.9692 5.29517 11.4288 4.83259 12.0549 4.83259C12.6729 4.83259 13.1405 5.29517 13.1405 5.88881C13.1405 6.47474 12.6729 6.94502 12.0549 6.94502Z" fill="#606C37"/>
</svg>
